<?xml version="1.0" encoding="UTF-8"?>
<svg xmlns="http://www.w3.org/2000/svg" width="480" height="32" viewBox="0 0 480 32">
  <title>港の司令盤 共通ラインアイコン</title>
  <g fill="none" stroke="#ffffff" stroke-linecap="round" stroke-linejoin="round">
    <g transform="translate(0 0)">
      <circle cx="16" cy="16" r="12" stroke-width="2"/><circle cx="16" cy="16" r="2" fill="#ffffff" stroke="none"/>
      <path d="M18.5 10.2 15 17l-5.5 4.8L13 15z" fill="#ffffff" stroke="none"/>
      <path d="M16 2.5v3M16 26.5v3M2.5 16h3M26.5 16h3" stroke-width="1.5"/>
    </g>
    <g transform="translate(32 0)">
      <path d="M9 5h15v20H9c-2 0-3-1.4-3-3s1-3 3-3h15" stroke-width="2"/>
      <path d="M12 10h8M12 14h8" stroke-width="2"/>
    </g>
    <g transform="translate(64 0)">
      <path d="M8 13h16v9c0 3-2 5-5 5h-6c-3 0-5-2-5-5zM5 16h3M24 16h3M11 10h10M15 7h2" stroke-width="2"/>
      <path d="M12 4c-2 2 1 3-1 5M19 3c-2 2 1 3-1 5" stroke-width="1.5"/>
    </g>
    <g transform="translate(96 0)">
      <path d="M6 12h20l-2-6H8zM8 13v13h16V13M12 26v-7h8v7" stroke-width="2"/>
      <path d="M7 12c0 2 2 3 3 3s3-1 3-3c0 2 2 3 3 3s3-1 3-3c0 2 2 3 3 3s3-1 3-3" stroke-width="1.5"/>
    </g>
    <g transform="translate(128 0)">
      <path d="M18 4v15c0 5-3 8-7 8-4 0-7-3-7-7 0-3 2-5 5-5" stroke-width="2.2"/>
      <path d="m5 20 4-5 4 5M18 7h6" stroke-width="1.8"/>
    </g>
    <g transform="translate(160 0)">
      <path d="M5 20h22l-4 6H10zM10 20V9h10l4 11M15 9V5M15 6h7" stroke-width="2"/>
      <path d="M4 29c3-2 5 2 8 0 3-2 5 2 8 0 3-2 5 2 8 0" stroke-width="1.5"/>
    </g>
    <g transform="translate(192 0)">
      <path d="M4 18c5-7 13-8 21-4l4-4-1 7 1 7-5-4c-7 4-14 3-20-2z" stroke-width="2"/>
      <path d="m14 13 3-5 2 6M10 18h.1" stroke-width="1.8"/>
    </g>
    <g transform="translate(224 0)">
      <circle cx="16" cy="10" r="5" stroke-width="2"/>
      <path d="M7 27c1-6 4-9 9-9s8 3 9 9" stroke-width="2"/>
    </g>
    <g transform="translate(256 0)">
      <path d="M5 6h8c2 0 3 1 3 3v18c0-2-2-3-4-3H5zM27 6h-8c-2 0-3 1-3 3v18c0-2 2-3 4-3h7z" stroke-width="2"/>
      <path d="M9 11h4M20 11h4" stroke-width="1.5"/>
    </g>
    <g transform="translate(288 0)">
      <path d="m13 7-9 9 9 9M5 16h13c6 0 9 3 9 8" stroke-width="2.4"/>
    </g>
    <g transform="translate(320 0)">
      <path d="M8 21h16c3 0 5-2 5-5s-2-5-5-5h-1C21 7 18 5 14 6c-4 1-6 4-6 8-3 0-5 1-5 4 0 2 2 3 5 3z" stroke-width="2"/>
      <path d="m10 24-2 4M17 24l-2 4M24 24l-2 4" stroke-width="1.7"/>
    </g>
    <g transform="translate(352 0)">
      <path d="M16 29s9-9 9-17a9 9 0 1 0-18 0c0 8 9 17 9 17z" stroke-width="2"/>
      <circle cx="16" cy="12" r="3" stroke-width="2"/>
    </g>
    <g transform="translate(384 0)">
      <path d="M6 6h8l2 3 2-3h8v20h-8l-2 2-2-2H6zM16 9v19" stroke-width="2"/>
      <path d="M9 11h4M19 11h4M9 15h4M19 15h4" stroke-width="1.4"/>
    </g>
    <g transform="translate(416 0)">
      <path d="M5 7h22v16H14l-6 5v-5H5z" stroke-width="2"/>
      <circle cx="11" cy="15" r="1.5" fill="#ffffff" stroke="none"/><circle cx="16" cy="15" r="1.5" fill="#ffffff" stroke="none"/><circle cx="21" cy="15" r="1.5" fill="#ffffff" stroke="none"/>
    </g>
    <g transform="translate(448 0)">
      <rect x="7" y="14" width="18" height="14" rx="3" stroke-width="2"/>
      <path d="M11 14V9a5 5 0 0 1 10 0v5" stroke-width="2"/>
    </g>
  </g>
</svg>
